<?xml version="1.0" encoding="UTF-8" standalone="no"?>
<!-- Created with Inkscape (http://www.inkscape.org/) -->

<svg
   width="6mm"
   height="6mm"
   viewBox="0 0 6 6.0000001"
   version="1.1"
   id="svg1"
   sodipodi:docname="structure-square.svg"
   inkscape:version="1.4 (86a8ad7, 2024-10-11)"
   xmlns:inkscape="http://www.inkscape.org/namespaces/inkscape"
   xmlns:sodipodi="http://sodipodi.sourceforge.net/DTD/sodipodi-0.dtd"
   xmlns="http://www.w3.org/2000/svg"
   xmlns:svg="http://www.w3.org/2000/svg">
  <sodipodi:namedview
     id="namedview1"
     pagecolor="#ffffff"
     bordercolor="#cccccc"
     borderopacity="1"
     inkscape:showpageshadow="0"
     inkscape:pageopacity="1"
     inkscape:pagecheckerboard="0"
     inkscape:deskcolor="#d1d1d1"
     inkscape:document-units="mm"
     inkscape:zoom="25.16355"
     inkscape:cx="11.882266"
     inkscape:cy="13.253297"
     inkscape:window-width="1920"
     inkscape:window-height="1009"
     inkscape:window-x="1912"
     inkscape:window-y="-8"
     inkscape:window-maximized="1"
     inkscape:current-layer="g80" />
  <defs
     id="defs1" />
  <g
     id="layer1"
     transform="matrix(1.0892909,0,0,1.0892869,-64.28175,-176.38686)"
     style="stroke-width:0.91803">
    <path
       style="color:#000000;fill:#000000;stroke:none;stroke-width:0.91803;-inkscape-stroke:none"
       d="m 64.227272,162.37543 -4.862253,4.86227 0.03476,0.0348 4.862244,-4.86227 z"
       id="path66" />
    <g
       id="g80"
       transform="matrix(0.99301941,0,0,0.99301813,-91.89055,157.95716)"
       style="stroke-width:0.924484">
      <rect
         style="fill:#ffffff;fill-opacity:1;stroke:#000000;stroke-width:0.184897;stroke-dasharray:none"
         id="rect65"
         width="5.3619828"
         height="5.36201"
         x="152.05627"
         y="4.0919571"
         ry="0" />
      <path
         id="path67"
         style="color:#000000;fill:#000000;stroke-width:0.924484;-inkscape-stroke:none"
         d="m 152.34165,4.3425557 -0.0345,0.034492 1.62366,1.6231591 a 1.1196289,1.1196346 0 0 1 0.0345,-0.034492 z m 4.79083,0 -1.62112,1.6221445 a 1.1196289,1.1196346 0 0 1 0.035,0.034492 l 1.62113,-1.6221446 z m -1.58816,3.2021885 a 1.1196289,1.1196346 0 0 1 -0.0345,0.034999 l 1.62265,1.6226517 0.0351,-0.034492 z m -1.61351,0.00101 -1.62366,1.6221447 0.0345,0.034492 1.62365,-1.6221446 a 1.1196289,1.1196346 0 0 1 -0.0345,-0.034492 z" />
    </g>
  </g>
</svg>
